Coordinates
version=1
nRows=9
nColumns=24
inDegrees=yes

Units are S.I. units (second, meters, Newtons, ...)
Angles are in degrees.

endheader
time	pelvis_tilt	pelvis_list	pelvis_rotation	pelvis_tx	pelvis_ty	pelvis_tz	hip_flexion_r	hip_adduction_r	hip_rotation_r	knee_angle_r	ankle_angle_r	subtalar_angle_r	mtp_angle_r	hip_flexion_l	hip_adduction_l	hip_rotation_l	knee_angle_l	ankle_angle_l	subtalar_angle_l	mtp_angle_l	lumbar_extension	lumbar_bending	lumbar_rotation
      1.18666667	      0.45310110	      7.00361179	      1.12578049	      0.20970147	      0.99116071	      0.28569905	     19.52771751	     -7.74135736	      0.01861199	    -71.73211440	      3.25736867	     -8.11387903	      0.70556375	     10.10553816	     12.53492476	      2.04351855	    -16.35180459	      4.62943780	     -9.16478580	     -0.13343971	     -0.40372621	     -4.48847416	      2.21222900
      1.19083333	      0.53680488	      6.90682551	      1.14097833	      0.21487058	      0.99212247	      0.28558973	     20.02685563	     -7.57324589	      0.14730501	    -71.50347989	      3.87377876	     -8.46188442	      0.66940578	      9.48761447	     12.43933973	      2.20054103	    -16.00320599	      4.70788932	     -9.16691609	     -0.15180689	     -0.51781217	     -4.36785711	      2.16623838
      1.19500000	      0.60421301	      6.81226545	      1.15436502	      0.22002541	      0.99302292	      0.28549431	     20.53228186	     -7.40598678	      0.27655075	    -71.21777672	      4.47028618	     -8.81045998	      0.62657222	      8.89067941	     12.34574886	      2.36693831	    -15.65716486	      4.78202392	     -9.18499648	     -0.17458928	     -0.61077453	     -4.25707518	      2.11856122
      1.19916667	      0.71624558	      6.73085143	      1.16385185	      0.22520851	      0.99398108	      0.28539957	     20.96318289	     -7.25839151	      0.39510022	    -70.85371206	      5.01377066	     -9.22783814	      0.52726476	      8.22019867	     12.26825411	      2.57068561	    -15.26044656	      4.82514821	     -9.27704980	     -0.22778019	     -0.74412319	     -4.16825158	      2.05880196
      1.20333333	      0.78106610	      6.61358980	      1.18540033	      0.23033685	      0.99482170	      0.28531541	     21.42983369	     -7.06899017	      0.50073155	    -70.43068311	      5.63203668	     -9.48754742	      0.47969131	      7.64292107	     12.14643015	      2.73367089	    -14.94376097	      4.90568019	     -9.28801393	     -0.25535786	     -0.83910397	     -4.02708831	      2.02122497
      1.20750000	      0.84162678	      6.50542486	      1.20635316	      0.23549273	      0.99561980	      0.28523307	     21.88072878	     -6.89686211	      0.59493641	    -69.94363669	      6.21517600	     -9.78474232	      0.43704571	      7.06394406	     12.03265160	      2.88682676	    -14.61351940	      4.99085439	     -9.31362279	     -0.28012400	     -0.90347663	     -3.89336313	      1.98195090
      1.21166667	      0.93185124	      6.40289740	      1.22404255	      0.24062086	      0.99644303	      0.28518683	     22.27900231	     -6.71946317	      0.69936793	    -69.39013115	      6.77208676	    -10.13275320	      0.37893443	      6.44808823	     11.92463072	      3.07961948	    -14.26933396	      5.05405673	     -9.37032978	     -0.31316556	     -1.03227981	     -3.78886590	      1.93475428
      1.21583333	      1.04778530	      6.31662607	      1.23258303	      0.24577083	      0.99726645	      0.28512275	     22.63198425	     -6.57217666	      0.79203340	    -68.77708536	      7.23577855	    -10.54265189	      0.25153160	      5.77845585	     11.83781931	      3.30806829	    -13.87091067	      5.09073886	     -9.51199636	     -0.38278626	     -1.18141097	     -3.68720096	      1.87115571
      1.22000000	      1.10145964	      6.19778680	      1.26523920	      0.25087554	      0.99794609	      0.28507505	     23.02865613	     -6.38647429	      0.86686437	    -68.09994201	      7.76004316	    -10.81698072	      0.16991240	      5.22543003	     11.70989253	      3.48830385	    -13.56946109	      5.16764825	     -9.57308710	     -0.42774163	     -1.25231874	     -3.56496983	      1.83189017
